<svg xmlns="http://www.w3.org/2000/svg" width="19.181" height="32.09" viewBox="0 0 19.181 32.09">
  <g id="電話の受話器のアイコン素材_その2" data-name="電話の受話器のアイコン素材 その2" transform="translate(-102.982)">
    <path id="パス_5" data-name="パス 5" d="M104.7,113.926c-1.719,1.115-2.056,4.6-1.408,7.439a25.655,25.655,0,0,0,3.392,7.972,26.639,26.639,0,0,0,5.9,6.348c2.328,1.751,5.648,2.863,7.367,1.749a8.7,8.7,0,0,0,2.219-2.38l-.923-1.424-2.539-3.915c-.189-.291-1.372-.025-1.973.316a5.724,5.724,0,0,0-1.558,1.692c-.556.321-1.022,0-1.995-.447-1.2-.55-2.541-2.26-3.611-3.808-.977-1.609-1.99-3.534-2-4.85-.012-1.071-.114-1.627.406-2a5.724,5.724,0,0,0,2.18-.732c.556-.41,1.282-1.382,1.093-1.673l-2.539-3.915-.923-1.424A8.7,8.7,0,0,0,104.7,113.926Z" transform="translate(0 -105.792)" fill="#fff"/>
    <path id="パス_6" data-name="パス 6" d="M276.7,11.055a8.191,8.191,0,0,0-5.573-9.775L271.474,0a9.519,9.519,0,0,1,6.5,11.406Z" transform="translate(-157.603)" fill="#fff"/>
    <path id="パス_7" data-name="パス 7" d="M262.563,51.772a5.314,5.314,0,0,0-3.558-6.242l.351-1.28a6.641,6.641,0,0,1,4.488,7.873Z" transform="translate(-146.244 -41.476)" fill="#fff"/>
    <path id="パス_8" data-name="パス 8" d="M248.412,92.51a2.436,2.436,0,0,0-1.542-2.7l.351-1.283a3.764,3.764,0,0,1,2.473,4.338Z" transform="translate(-134.87 -82.975)" fill="#fff"/>
  </g>
</svg>
