<svg xmlns="http://www.w3.org/2000/svg" width="308.555" height="43" viewBox="0 0 308.555 43">
  <g id="グループ_28" data-name="グループ 28" transform="translate(-100 -28)">
    <path id="パス_22" data-name="パス 22" d="M3.047-28.691H6.934V-3.418H21.465V0H3.047Zm34.629-.781q7.6,0,11.25,4.883a15.824,15.824,0,0,1,2.852,9.746A17.055,17.055,0,0,1,48.516-4.16Q44.688.84,37.6.84q-6.621,0-10.41-4.375A16.52,16.52,0,0,1,23.809-14.2,16.961,16.961,0,0,1,26.7-24.16Q30.41-29.473,37.676-29.473Zm.391,26.836q5.137,0,7.432-3.682a15.671,15.671,0,0,0,2.295-8.467,12.077,12.077,0,0,0-2.646-8.145,9.033,9.033,0,0,0-7.236-3.086,9.423,9.423,0,0,0-7.266,3.057q-2.812,3.057-2.812,9.014a13.169,13.169,0,0,0,2.412,8.037Q32.656-2.637,38.066-2.637Zm30.742-26.8A14.739,14.739,0,0,1,75.8-27.871Q80.078-25.625,81.035-20H77.188a6.988,6.988,0,0,0-2.91-4.58,10.017,10.017,0,0,0-5.566-1.436A8.723,8.723,0,0,0,62-23.027q-2.725,2.988-2.725,8.906a14.231,14.231,0,0,0,2.246,8.33q2.246,3.213,7.324,3.213a9.352,9.352,0,0,0,6.436-2.256q2.549-2.256,2.607-7.295H68.906v-3.223H81.5V0H79l-.937-3.691a14.736,14.736,0,0,1-3.5,3.008,13.1,13.1,0,0,1-6.5,1.445,12.671,12.671,0,0,1-8.77-3.3q-4-4.141-4-11.367,0-7.207,3.906-11.465A12.417,12.417,0,0,1,68.809-29.434ZM99.9-29.473q7.6,0,11.25,4.883A15.824,15.824,0,0,1,114-14.844,17.055,17.055,0,0,1,110.742-4.16q-3.828,5-10.918,5Q93.2.84,89.414-3.535A16.52,16.52,0,0,1,86.035-14.2a16.961,16.961,0,0,1,2.891-9.961Q92.637-29.473,99.9-29.473Zm.391,26.836q5.137,0,7.432-3.682a15.671,15.671,0,0,0,2.295-8.467,12.077,12.077,0,0,0-2.646-8.145,9.033,9.033,0,0,0-7.236-3.086,9.423,9.423,0,0,0-7.266,3.057q-2.812,3.057-2.812,9.014a13.169,13.169,0,0,0,2.412,8.037Q94.883-2.637,100.293-2.637Zm30.332-26.055h3.926V0h-3.926Zm10.137,0h5.566L154.57-4.434l8.184-24.258h5.508V0H164.57V-16.934q0-.879.039-2.91t.039-4.355L156.465,0h-3.848l-8.242-24.2v.879q0,1.055.049,3.213t.049,3.174V0h-3.711Zm48.145,16.934-4.355-12.676-4.629,12.676ZM182.52-28.691h4.395L197.324,0h-4.258l-2.91-8.594H178.809L175.7,0h-3.984Zm30.742-.742a14.739,14.739,0,0,1,6.992,1.563q4.277,2.246,5.234,7.871h-3.848a6.987,6.987,0,0,0-2.91-4.58,10.017,10.017,0,0,0-5.566-1.436,8.723,8.723,0,0,0-6.709,2.988q-2.725,2.988-2.725,8.906a14.231,14.231,0,0,0,2.246,8.33q2.246,3.213,7.324,3.213a9.352,9.352,0,0,0,6.436-2.256q2.549-2.256,2.607-7.295h-8.984v-3.223h12.6V0h-2.5l-.937-3.691a14.736,14.736,0,0,1-3.5,3.008,13.1,13.1,0,0,1-6.5,1.445,12.671,12.671,0,0,1-8.77-3.3q-4-4.141-4-11.367,0-7.207,3.906-11.465A12.417,12.417,0,0,1,213.262-29.434Zm19.082.742h20.918v3.516H236.133v8.711h15.84v3.32h-15.84v9.727h17.422V0H232.344Z" transform="translate(155 63)" fill="#258cc3"/>
    <circle id="楕円形_1" data-name="楕円形 1" cx="21.5" cy="21.5" r="21.5" transform="translate(100 28)" fill="#258cc3"/>
    <path id="パス_23" data-name="パス 23" d="M-9.32,0l6.04-28.56H2.68L-2.32-5h10L6.64,0Z" transform="translate(133 65)" fill="#fff"/>
  </g>
</svg>
